<svg width="818" height="818" viewBox="0 0 818 818" fill="none" xmlns="http://www.w3.org/2000/svg">
<path d="M82 132.923V621.142C82 634.966 95.6905 644.622 108.713 639.982L212.5 603V186L476.5 277L657.5 213V599L717.31 623.519C727.18 627.565 738 620.306 738 609.64V237.912C738 211.442 719.467 188.587 693.568 183.119L159.221 70.3037C119.432 61.9031 82 92.2571 82 132.923Z" fill="black"/>
<path d="M467 543L158 647L402 765L676.5 629.5L467 543Z" fill="black"/>
<path d="M484 294.5L623 246.5V584.5L484 528.5V294.5Z" fill="black" fill-opacity="0.4"/>
</svg>
